<?xml version="1.0" encoding="UTF-8" standalone="no"?>
<!-- Created with Inkscape (http://www.inkscape.org/) -->

<svg
   xmlns:dc="http://purl.org/dc/elements/1.1/"
   xmlns:cc="http://creativecommons.org/ns#"
   xmlns:rdf="http://www.w3.org/1999/02/22-rdf-syntax-ns#"
   xmlns:svg="http://www.w3.org/2000/svg"
   xmlns="http://www.w3.org/2000/svg"
   xmlns:sodipodi="http://sodipodi.sourceforge.net/DTD/sodipodi-0.dtd"
   xmlns:inkscape="http://www.inkscape.org/namespaces/inkscape"
   id="svg2"
   version="1.1"
   inkscape:version="0.48.2 r9819"
   width="1066.5363"
   height="1502.3625"
   xml:space="preserve"
   sodipodi:docname="A3_2a.svg"><metadata
     id="metadata8"><rdf:RDF><cc:Work
         rdf:about=""><dc:format>image/svg+xml</dc:format><dc:type
           rdf:resource="http://purl.org/dc/dcmitype/StillImage" /><dc:title /></cc:Work></rdf:RDF></metadata><defs
     id="defs6"><clipPath
       clipPathUnits="userSpaceOnUse"
       id="clipPath18"><path
         d="m 0,1201.89 853.228,0 L 853.228,0 0,0 0,1201.89 z"
         id="path20"
         inkscape:connector-curvature="0" /></clipPath></defs><sodipodi:namedview
     pagecolor="#003742"
     bordercolor="#ffffff"
     borderopacity="1"
     objecttolerance="10"
     gridtolerance="10"
     guidetolerance="10"
     inkscape:pageopacity="1"
     inkscape:pageshadow="2"
     inkscape:window-width="1920"
     inkscape:window-height="1032"
     id="namedview4"
     showgrid="false"
     inkscape:zoom="0.45254834"
     inkscape:cx="119.21884"
     inkscape:cy="789.27437"
     inkscape:window-x="0"
     inkscape:window-y="22"
     inkscape:window-maximized="1"
     inkscape:current-layer="layer2"
     showguides="true"
     inkscape:guide-bbox="true"
     units="cm"
     fit-margin-top="0"
     fit-margin-left="0"
     fit-margin-right="0"
     fit-margin-bottom="0"
     borderlayer="true"
     inkscape:showpageshadow="false" /><g
     id="g10"
     inkscape:groupmode="layer"
     inkscape:label="Bg"
     transform="matrix(1.25,0,0,-1.25,-2.2507008,1502.5006)"
     style="display:inline"><path
   d="m 1.8005606,0.11048543 853.2289994,0 0,1201.89001457 -853.2289994,0 0,-1201.89001457 z"
   style="fill:#003742;fill-opacity:1;fill-rule:nonzero;stroke:none"
   id="path12"
   inkscape:connector-curvature="0" />


</g><g
     inkscape:groupmode="layer"
     id="layer1"
     inkscape:label="Bulb and text"
     style="display:inline"><g
       id="g3878"><g
         transform="matrix(1.25,0,0,-1.25,629.63155,333.60273)"
         id="g194"
         style="display:inline"><path
           inkscape:connector-curvature="0"
           id="path196"
           style="fill:none;stroke:#ffffff;stroke-width:3.58800006;stroke-linecap:round;stroke-linejoin:round;stroke-miterlimit:10;stroke-opacity:1;stroke-dasharray:none"
           d="m 0,0 c 0,17.65 -14.308,31.959 -31.959,31.959 -11.954,0 -23.262,-7.537 -28.679,-18.061 -2.998,-5.825 -3.596,-11.405 -2.622,-16.787 2.589,-14.299 24.02,-12.255 24,2.277 -0.006,5.076 -1.248,10.09 -3.509,14.606 -5.141,10.27 -15.552,17.965 -28.684,17.965 l -0.159,0 c -11.682,0 -23.041,-7.268 -28.594,-17.435 -2.927,-5.361 -3.687,-10.65 -3,-15.796 2.012,-15.058 24.84,-13.056 24.193,2.123 -0.21,4.933 -1.54,9.789 -3.829,14.144 -4.619,8.788 -13.145,15.536 -24.255,16.763 -19.28,2.129 -35.598,-12.909 -35.598,-31.758" /></g><g
         id="g3825"
         style="display:inline"
         transform="matrix(1.25,0,0,-1.25,-2.2507008,1502.5006)"><g
           id="g190"
           transform="translate(453.2659,362.4723)"><path
             d="m 0,0 c -13.061,21.823 -22.509,41.889 -28.042,67.121 -5.968,27.217 -4.224,57.127 5.176,82.703 7.149,19.452 31.552,56.725 32.224,57.89 l -78.51,0 88.281,33.059 -101.531,12.764 124.54,46.029 c 0,0 -5.14,107.288 38.042,154.008 39.206,42.419 60.319,103.154 51.756,161.234 -9.158,62.118 -56.817,109.936 -117.743,124.724 -12.19,2.958 -24.562,4.373 -36.859,4.341 l 2.229,0 c -12.297,0.032 -24.669,-1.383 -36.859,-4.341 -60.926,-14.788 -108.585,-62.606 -117.743,-124.724 -8.563,-58.08 12.549,-118.815 51.756,-161.234 43.182,-46.72 38.042,-154.008 38.042,-154.008 l 56.377,0"
             style="fill:none;stroke:#ffffff;stroke-width:18.11899948;stroke-linecap:round;stroke-linejoin:round;stroke-miterlimit:10;stroke-opacity:1;stroke-dasharray:none"
             id="path192"
             inkscape:connector-curvature="0" /></g><g
           id="g3809"><g
             transform="translate(450.4444,369.3959)"
             id="g198"><path
               inkscape:connector-curvature="0"
               id="path200"
               style="fill:#ffffff;fill-opacity:1;fill-rule:nonzero;stroke:none"
               d="m 0,0 c -21.681,0 -39.289,-18.891 -39.653,-42.34 l 8.72,0 0,-48.843 13.652,0 0,36.6 c 0,4.743 0.838,8.813 2.475,12.243 l 30.354,0 c 0.26,-0.851 0.488,-1.728 0.649,-2.658 0.435,-2.518 0.653,-5.181 0.653,-7.987 l 0,-38.198 13.653,0 0,42.7 c 0,2.122 -0.168,4.165 -0.473,6.143 l 9.623,0 C 39.289,-18.891 21.681,0 0,0" /></g><g
             transform="translate(216.6916,289.8316)"
             id="g202"><path
               inkscape:connector-curvature="0"
               id="path204"
               style="fill:#ffffff;fill-opacity:1;fill-rule:nonzero;stroke:none"
               d="m 0,0 c -2.857,-1.357 -6.027,-2.033 -9.513,-2.033 -3.584,0 -6.779,0.676 -9.586,2.033 -2.81,1.354 -5.181,3.17 -7.117,5.446 -1.938,2.275 -3.413,4.913 -4.43,7.916 -1.016,3 -1.524,6.148 -1.524,9.441 0,3.29 0.508,6.437 1.524,9.44 1.017,3 2.492,5.639 4.43,7.915 1.936,2.275 4.285,4.09 7.045,5.446 2.759,1.356 5.929,2.035 9.512,2.035 3.291,0 6.391,-0.752 9.296,-2.252 2.905,-1.502 5.083,-3.366 6.535,-5.592 l 9.877,7.988 c -2.81,3.679 -6.609,6.487 -11.402,8.424 -4.793,1.936 -9.61,2.905 -14.451,2.905 -5.228,0 -10.094,-0.872 -14.596,-2.614 -4.503,-1.743 -8.401,-4.212 -11.692,-7.407 -3.293,-3.195 -5.859,-7.022 -7.698,-11.474 -1.84,-4.455 -2.759,-9.393 -2.759,-14.814 0,-5.52 0.944,-10.508 2.832,-14.96 1.888,-4.455 4.477,-8.256 7.77,-11.402 3.291,-3.147 7.19,-5.591 11.692,-7.334 4.503,-1.743 9.416,-2.614 14.742,-2.614 5.519,0 10.457,0.944 14.814,2.832 4.357,1.888 7.988,4.525 10.893,7.915 L 7.044,5.519 C 5.204,3.195 2.854,1.354 0,0" /></g><g
             transform="translate(300.3424,303.2935)"
             id="g206"><path
               inkscape:connector-curvature="0"
               id="path208"
               style="fill:#ffffff;fill-opacity:1;fill-rule:nonzero;stroke:none"
               d="m 0,0 c -1.021,-2.993 -2.5,-5.648 -4.443,-7.966 -1.943,-2.316 -4.349,-4.15 -7.212,-5.503 -2.866,-1.352 -6.146,-2.026 -9.836,-2.026 -3.692,0 -6.971,0.674 -9.835,2.026 -2.866,1.353 -5.27,3.187 -7.212,5.503 -1.942,2.318 -3.424,4.973 -4.443,7.966 -1.021,2.991 -1.53,6.129 -1.53,9.413 0,3.281 0.509,6.42 1.53,9.413 1.019,2.991 2.501,5.621 4.443,7.891 1.942,2.269 4.346,4.078 7.212,5.43 2.864,1.353 6.143,2.03 9.835,2.03 3.69,0 6.97,-0.677 9.836,-2.03 2.863,-1.352 5.269,-3.161 7.212,-5.43 C -2.5,24.447 -1.021,21.817 0,18.826 1.019,15.833 1.53,12.694 1.53,9.413 1.53,6.129 1.019,2.991 0,0 m 5.088,35.483 c -3.34,3.196 -7.287,5.688 -11.837,7.48 -4.552,1.791 -9.44,2.687 -14.669,2.687 -5.228,0 -10.119,-0.896 -14.669,-2.687 -4.553,-1.792 -8.474,-4.284 -11.765,-7.48 -3.293,-3.195 -5.881,-6.996 -7.77,-11.401 -1.888,-4.407 -2.832,-9.272 -2.832,-14.597 0,-5.326 0.944,-10.215 2.832,-14.669 1.889,-4.454 4.477,-8.303 7.77,-11.545 3.291,-3.246 7.212,-5.763 11.765,-7.553 4.55,-1.791 9.441,-2.687 14.669,-2.687 5.229,0 10.117,0.896 14.669,2.687 4.55,1.79 8.497,4.307 11.837,7.553 3.341,3.242 5.955,7.091 7.843,11.545 1.888,4.454 2.832,9.343 2.832,14.669 0,5.325 -0.944,10.19 -2.832,14.597 -1.888,4.405 -4.502,8.206 -7.843,11.401" /></g><g
             transform="translate(390.175,340.6646)"
             id="g210"><path
               inkscape:connector-curvature="0"
               id="path212"
               style="fill:#ffffff;fill-opacity:1;fill-rule:nonzero;stroke:none"
               d="m 0,0 c -2.131,2.518 -4.793,4.525 -7.988,6.028 -3.196,1.5 -7.022,2.251 -11.474,2.251 -2.519,0 -4.938,-0.341 -7.262,-1.016 -2.324,-0.679 -4.455,-1.623 -6.39,-2.832 -1.939,-1.212 -3.657,-2.615 -5.157,-4.212 -1.502,-1.598 -2.687,-3.319 -3.558,-5.156 l -0.436,0 c 0,1.452 -0.049,3.267 -0.145,5.446 -0.097,2.179 -0.242,4.139 -0.436,5.882 l -12.925,0 c 0.192,-2.229 0.337,-4.793 0.435,-7.698 0.095,-2.905 0.145,-5.278 0.145,-7.117 l 0,-54.028 13.653,0 0,36.6 c 0,6.873 1.718,12.368 5.156,16.485 3.435,4.114 7.865,6.173 13.289,6.173 3.195,0 5.809,-0.581 7.843,-1.743 2.033,-1.163 3.631,-2.712 4.793,-4.648 1.162,-1.938 1.96,-4.165 2.396,-6.682 0.436,-2.518 0.654,-5.18 0.654,-7.987 l 0,-38.198 13.652,0 0,42.7 c 0,3.871 -0.508,7.503 -1.525,10.893 C 3.704,-5.471 2.128,-2.519 0,0" /></g><g
             transform="translate(513.4782,318.7339)"
             id="g214"><path
               inkscape:connector-curvature="0"
               id="path216"
               style="fill:#ffffff;fill-opacity:1;fill-rule:nonzero;stroke:none"
               d="m 0,0 c 0.192,2.71 0.894,5.251 2.105,7.625 1.21,2.372 2.76,4.43 4.648,6.173 1.889,1.743 4.115,3.122 6.682,4.139 2.564,1.017 5.3,1.525 8.206,1.525 3.195,0 5.977,-0.508 8.35,-1.525 2.372,-1.017 4.358,-2.396 5.955,-4.139 1.598,-1.743 2.808,-3.801 3.631,-6.173 C 40.398,5.251 40.859,2.71 40.957,0 L 0,0 z m 45.949,20.624 c -2.863,3.098 -6.356,5.469 -10.479,7.116 -4.126,1.646 -8.71,2.47 -13.755,2.47 -5.047,0 -9.751,-0.897 -14.117,-2.688 -4.367,-1.792 -8.152,-4.284 -11.354,-7.479 -3.202,-3.195 -5.701,-7.044 -7.496,-11.547 -1.795,-4.502 -2.691,-9.417 -2.691,-14.741 0,-5.424 0.919,-10.362 2.759,-14.815 1.838,-4.455 4.358,-8.255 7.553,-11.401 3.195,-3.147 7.019,-5.592 11.474,-7.334 4.452,-1.743 9.295,-2.614 14.523,-2.614 6.101,0 11.643,1.152 16.63,3.456 4.986,2.306 9.318,5.897 12.999,10.777 l -9.586,7.697 c -1.937,-2.905 -4.599,-5.374 -7.988,-7.407 -3.39,-2.033 -7.407,-3.05 -12.055,-3.05 -3.002,0 -5.834,0.529 -8.496,1.586 -2.664,1.058 -5.011,2.524 -7.044,4.399 -2.033,1.874 -3.656,4.087 -4.865,6.636 -1.212,2.545 -1.866,5.261 -1.961,8.148 l 54.755,0 c 0.095,0.774 0.145,1.548 0.145,2.324 l 0,2.324 c 0,5.519 -0.776,10.48 -2.329,14.887 -1.551,4.404 -3.76,8.156 -6.622,11.256" /></g><g
             transform="translate(629.3053,289.8316)"
             id="g218"><path
               inkscape:connector-curvature="0"
               id="path220"
               style="fill:#ffffff;fill-opacity:1;fill-rule:nonzero;stroke:none"
               d="m 0,0 c -2.856,-1.357 -6.027,-2.033 -9.513,-2.033 -3.583,0 -6.778,0.676 -9.586,2.033 -2.809,1.354 -5.18,3.17 -7.116,5.446 -1.938,2.275 -3.413,4.913 -4.43,7.916 -1.017,3 -1.525,6.148 -1.525,9.441 0,3.29 0.508,6.437 1.525,9.44 1.017,3 2.492,5.639 4.43,7.915 1.936,2.275 4.284,4.09 7.044,5.446 2.76,1.356 5.93,2.035 9.513,2.035 3.291,0 6.39,-0.752 9.296,-2.252 2.904,-1.502 5.083,-3.366 6.535,-5.592 l 9.876,7.988 C 13.24,51.462 9.44,54.27 4.648,56.207 c -4.793,1.936 -9.611,2.905 -14.452,2.905 -5.228,0 -10.093,-0.872 -14.595,-2.614 -4.503,-1.743 -8.402,-4.212 -11.693,-7.407 -3.292,-3.195 -5.859,-7.022 -7.697,-11.474 -1.841,-4.455 -2.76,-9.393 -2.76,-14.814 0,-5.52 0.945,-10.508 2.832,-14.96 1.889,-4.455 4.478,-8.256 7.771,-11.402 3.291,-3.147 7.189,-5.591 11.691,-7.334 4.503,-1.743 9.416,-2.614 14.742,-2.614 5.519,0 10.457,0.944 14.815,2.832 4.357,1.888 7.988,4.525 10.892,7.915 L 7.045,5.519 C 5.204,3.195 2.855,1.354 0,0" /></g><g
             transform="translate(692.7008,335.8726)"
             id="g222"><path
               inkscape:connector-curvature="0"
               id="path224"
               style="fill:#ffffff;fill-opacity:1;fill-rule:nonzero;stroke:none"
               d="m 0,0 0,11.183 -18.301,0 0,19.753 -13.507,0 0,-19.753 -13.216,0 0,-11.183 13.216,0 0,-37.327 c 0,-7.166 1.718,-12.54 5.157,-16.121 3.435,-3.583 8.398,-5.374 14.886,-5.374 2.129,0 4.188,0.17 6.173,0.509 1.984,0.339 3.799,0.798 5.446,1.379 l -0.435,11.183 c -1.162,-0.533 -2.469,-0.933 -3.922,-1.198 -1.452,-0.268 -2.809,-0.4 -4.066,-0.4 -3.391,0 -5.86,0.893 -7.408,2.679 -1.549,1.785 -2.324,4.754 -2.324,8.904 L -18.301,0 0,0 z" /></g></g></g></g><g
       id="g3904"><flowRoot
         xml:space="preserve"
         id="flowRoot3201-4"
         style="font-size:80px;font-style:normal;font-variant:normal;font-weight:300;font-stretch:condensed;text-align:start;line-height:125%;letter-spacing:0px;word-spacing:0px;writing-mode:lr-tb;text-anchor:start;fill:#ffffff;fill-opacity:1;stroke:none;display:inline;font-family:Open Sans;-inkscape-font-specification:Open Sans Light Condensed"
         transform="translate(1274.398,146.4561)"><flowRegion
           id="flowRegion3203-1"><rect
             id="rect3205-7"
             width="686.46375"
             height="99.030815"
             x="-1075.835"
             y="1018.4619"
             style="font-size:80px;font-style:normal;font-variant:normal;font-weight:300;font-stretch:condensed;text-align:start;line-height:125%;writing-mode:lr-tb;text-anchor:start;fill:#ffffff;font-family:Open Sans;-inkscape-font-specification:Open Sans Light Condensed" /></flowRegion><flowPara
           id="flowPara3207-1"
           style="letter-spacing:1.32000005px">LINUX </flowPara></flowRoot><flowRoot
         xml:space="preserve"
         id="flowRoot3201"
         style="font-size:80px;font-style:normal;font-variant:normal;font-weight:300;font-stretch:condensed;text-align:start;line-height:125%;letter-spacing:0px;word-spacing:0px;writing-mode:lr-tb;text-anchor:start;fill:#80b04e;fill-opacity:1;stroke:none;display:inline;font-family:Open Sans;-inkscape-font-specification:Open Sans Light Condensed"
         transform="translate(1280.398,146.4561)"><flowRegion
           id="flowRegion3203"><rect
             id="rect3205"
             width="686.46375"
             height="99.030815"
             x="-1075.835"
             y="1018.4619"
             style="font-size:80px;font-style:normal;font-variant:normal;font-weight:300;font-stretch:condensed;text-align:start;line-height:125%;writing-mode:lr-tb;text-anchor:start;fill:#80b04e;fill-opacity:1;font-family:Open Sans;-inkscape-font-specification:Open Sans Light Condensed" /></flowRegion><flowPara
           id="flowPara3207"
           style="letter-spacing:1.32000005px;fill:#80b04e;fill-opacity:1">           FOR OPEN MINDS</flowPara></flowRoot></g></g><g
     inkscape:groupmode="layer"
     id="layer2"
     inkscape:label="Logo and URL"
     style="display:inline"><g
       transform="matrix(1.25,0,0,-1.25,-2.2507008,1502.5006)"
       style="display:inline"
       id="g3914"><g
         transform="translate(790.6551,93.8841)"
         id="g86"><path
           inkscape:connector-curvature="0"
           id="path88"
           style="fill:#ffffff;fill-opacity:1;fill-rule:nonzero;stroke:none"
           d="M 0,0 C 0.053,1.425 0.649,2.748 1.692,3.718 2.734,4.692 4.095,5.195 5.521,5.149 8.462,5.044 10.773,2.562 10.672,-0.376 10.616,-1.802 10.02,-3.124 8.98,-4.091 7.938,-5.071 6.581,-5.574 5.148,-5.526 2.21,-5.417 -0.098,-2.94 0,0 z m 14.267,-5.255 c 0.242,0.161 0.42,0.293 0.495,0.323 l 0.081,0.126 c -0.205,1.29 -2.127,7.542 -3.581,9.045 -0.4,0.41 -0.721,0.814 -1.371,1.194 -5.259,3.064 -17.736,4.914 -18.321,4.998 l -0.099,-0.027 -0.037,-0.09 c 0,0 -0.049,-2.586 -0.056,-2.875 -1.274,0.428 -10.538,3.421 -19.221,3.722 -7.365,0.259 -18.089,1.211 -32.3,-7.527 l -0.421,-0.262 c -6.686,-4.171 -11.302,-9.314 -13.715,-15.288 -0.757,-1.881 -1.775,-6.123 -0.766,-10.115 0.435,-1.745 1.245,-3.499 2.337,-5.068 2.469,-3.547 6.612,-5.9 11.073,-6.298 6.299,-0.563 11.068,2.266 12.765,7.563 1.166,3.655 0,9.018 -4.472,11.754 -3.637,2.227 -7.547,1.721 -9.816,0.22 -1.968,-1.305 -3.082,-3.333 -3.063,-5.56 0.046,-3.95 3.448,-6.05 5.895,-6.056 0.711,0 1.425,0.124 2.23,0.386 0.286,0.087 0.556,0.195 0.853,0.379 l 0.093,0.055 0.058,0.039 -0.019,-0.012 c 0.557,0.38 0.893,0.998 0.893,1.661 0,0.18 -0.025,0.364 -0.077,0.548 -0.289,1.001 -1.277,1.606 -2.302,1.419 l -0.138,-0.033 -0.187,-0.057 -0.272,-0.093 c -0.563,-0.139 -0.985,-0.151 -1.075,-0.154 -0.287,0.019 -1.695,0.44 -1.695,1.983 l 0,0.021 c 0,0.566 0.227,0.964 0.352,1.181 0.439,0.687 1.638,1.361 3.259,1.22 2.127,-0.184 3.661,-1.274 4.676,-3.332 0.943,-1.913 0.696,-4.267 -0.635,-5.99 -1.323,-1.708 -3.678,-2.434 -6.81,-2.097 -3.158,0.349 -5.827,2.166 -7.323,4.995 -1.463,2.766 -1.543,6.044 -0.206,8.563 3.196,6.035 9.235,5.972 12.546,5.4 4.899,-0.85 10.473,-5.369 12.45,-10.588 0.319,-0.832 0.482,-1.491 0.624,-2.094 l 0.213,-0.901 5.536,-2.703 0.072,-0.054 0.134,0.012 0.025,0.159 c -0.035,0.124 -0.115,0.238 -0.243,1.787 -0.105,1.375 -0.319,5.138 1.575,7.003 0.736,0.729 1.857,1.379 2.742,1.587 3.628,0.887 7.882,0.275 11.904,-4.381 2.083,-2.404 3.098,-3.501 3.607,-3.992 l 0.178,-0.16 0.209,-0.156 c 0.167,-0.091 6.917,-3.201 6.917,-3.201 l 0.139,0.034 0.002,0.144 c -0.045,0.051 -4.278,5.523 -3.525,10.028 0.594,3.588 3.45,3.263 7.4,2.817 1.29,-0.151 2.758,-0.319 4.277,-0.353 4.244,-0.027 8.815,0.757 11.633,1.989 1.822,0.792 2.986,1.32 3.714,1.982 0.262,0.218 0.398,0.57 0.54,0.95 l 0.099,0.25 c 0.118,0.308 0.291,0.956 0.367,1.311 0.031,0.156 0.049,0.321 -0.062,0.409 l -0.39,-0.072 C 12.794,-8.332 9.702,-9.742 6.811,-9.802 3.221,-9.874 -4.006,-6.192 -4.76,-5.8 l -0.072,0.084 c -0.178,0.433 -1.263,2.998 -1.495,3.54 5.204,-3.429 9.52,-5.324 12.824,-5.616 3.678,-0.328 6.545,1.679 7.77,2.537 z m -8.182,4.761 c -0.913,0 -1.651,0.494 -1.651,1.1 0,0.611 0.738,1.103 1.651,1.103 0.913,0 1.653,-0.492 1.653,-1.103 C 7.737,0 6.997,-0.494 6.085,-0.494 M 5.476,3.577 C 4.478,3.613 3.532,3.261 2.809,2.583 2.086,1.905 1.66,0.986 1.63,-0.008 c -0.069,-2.056 1.54,-3.785 3.59,-3.86 0.997,-0.03 1.948,0.322 2.675,1 0.726,0.681 1.144,1.6 1.176,2.591 0.069,2.055 -1.54,3.781 -3.595,3.854 z" /></g><g
         transform="translate(751.874,63.0188)"
         id="g90"><path
           inkscape:connector-curvature="0"
           id="path92"
           style="fill:#ffffff;fill-opacity:1;fill-rule:nonzero;stroke:none"
           d="m 0,0 c -2.345,0 -3.635,-1.983 -3.635,-3.354 l 0,-1.759 c 0,-2.019 1.649,-3.27 3.178,-3.27 l 5.37,0 c 0.676,0 0.818,-0.443 0.818,-0.817 l 0,-1.135 c 0,-0.121 -0.025,-1.212 -0.818,-1.212 l -7.323,0 c -0.728,0 -1.254,-0.506 -1.254,-1.199 l 0,-0.314 c 0,-0.69 0.526,-1.193 1.254,-1.193 l 7.721,0 c 2.018,0 3.32,1.404 3.32,3.58 l 0,1.898 c 0,2.043 -1.468,2.956 -2.925,2.956 l -5.283,0 c -0.795,0 -1.155,0.597 -1.155,1.018 l 0,1.049 c 0,0.66 0.441,1.043 1.212,1.043 l 5.848,0 c 0.717,0 1.257,0.515 1.257,1.196 l 0,0.313 C 7.585,-0.516 7.036,0 6.304,0 L 0,0 z" /></g><g
         transform="translate(773.8287,63.0188)"
         id="g94"><path
           inkscape:connector-curvature="0"
           id="path96"
           style="fill:#ffffff;fill-opacity:1;fill-rule:nonzero;stroke:none"
           d="m 0,0 c -0.693,0 -1.252,-0.563 -1.252,-1.257 l 0,-8.991 c 0,-0.72 -0.588,-1.299 -1.299,-1.299 l -4.081,0 c -0.714,0 -1.299,0.579 -1.299,1.299 l 0,8.991 C -7.931,-0.563 -8.494,0 -9.187,0 l -0.395,0 c -0.703,0 -1.256,-0.555 -1.256,-1.257 l 0,-9.331 c 0,-2.172 1.709,-3.748 4.064,-3.748 l 4.365,0 c 2.351,0 4.06,1.575 4.06,3.748 l 0,9.331 C 1.651,-0.555 1.1,0 0.397,0 L 0,0 z" /></g><g
         transform="translate(781.6426,63.0188)"
         id="g98"><path
           inkscape:connector-curvature="0"
           id="path100"
           style="fill:#ffffff;fill-opacity:1;fill-rule:nonzero;stroke:none"
           d="m 0,0 c -2.344,0 -3.638,-1.983 -3.638,-3.354 l 0,-1.759 c 0,-2.019 1.653,-3.27 3.183,-3.27 l 5.368,0 c 0.677,0 0.819,-0.443 0.819,-0.817 l 0,-1.135 c 0,-0.121 -0.024,-1.212 -0.819,-1.212 l -7.327,0 c -0.724,0 -1.253,-0.506 -1.253,-1.199 l 0,-0.314 c 0,-0.69 0.529,-1.193 1.253,-1.193 l 7.724,0 c 2.019,0 3.327,1.404 3.327,3.58 l 0,1.898 c 0,2.043 -1.472,2.956 -2.929,2.956 l -5.283,0 c -0.798,0 -1.157,0.597 -1.157,1.018 l 0,1.049 c 0,0.66 0.441,1.043 1.213,1.043 l 5.851,0 c 0.716,0 1.253,0.515 1.253,1.196 l 0,0.313 C 7.585,-0.516 7.037,0 6.301,0 L 0,0 z" /></g><g
         transform="translate(793.9861,63.0188)"
         id="g102"><path
           inkscape:connector-curvature="0"
           id="path104"
           style="fill:#ffffff;fill-opacity:1;fill-rule:nonzero;stroke:none"
           d="m 0,0 c -0.696,0 -1.222,-0.516 -1.222,-1.2 l 0,-11.859 c 0,-0.681 0.514,-1.193 1.194,-1.193 l 9.451,0 c 0.728,0 1.254,0.503 1.254,1.193 l 0,0.314 c 0,0.693 -0.526,1.199 -1.254,1.199 l -7.74,0 0,3.019 5.672,0 c 0.726,0 1.253,0.51 1.253,1.2 l 0,0.313 c 0,0.694 -0.527,1.197 -1.253,1.197 l -5.672,0 0,3.109 7.347,0 c 0.725,0 1.253,0.5 1.253,1.197 l 0,0.313 c 0,0.693 -0.528,1.2 -1.253,1.2 L 0,0.002 0,0 z" /></g><g
         transform="translate(713.0262,51.0263)"
         id="g106"><path
           inkscape:connector-curvature="0"
           id="path108"
           style="fill:#ffffff;fill-opacity:1;fill-rule:nonzero;stroke:none"
           d="m 0,0 0,4.083 c 0,0.479 0.393,0.87 0.874,0.87 l 2.254,0 c 0.47,0 0.87,-0.4 0.87,-0.87 L 3.998,0 c 0,-0.482 -0.39,-0.874 -0.87,-0.874 l -2.271,0 C 0.375,-0.874 0,-0.49 0,0 m 0.626,6.352 c -1.185,0 -2.149,-0.922 -2.149,-2.058 l 0,-4.472 c 0,-1.154 0.933,-2.094 2.077,-2.094 l 2.892,0 c 1.144,0 2.076,0.94 2.076,2.094 l 0,4.472 c 0,1.135 -0.964,2.058 -2.148,2.058 l -2.748,0 z" /></g><g
         transform="translate(722.203,51.1135)"
         id="g110"><path
           inkscape:connector-curvature="0"
           id="path112"
           style="fill:#ffffff;fill-opacity:1;fill-rule:nonzero;stroke:none"
           d="m 0,0 0,3.905 c 0,0.54 0.422,0.961 0.961,0.961 l 2.112,0 c 0.54,0 0.961,-0.422 0.961,-0.961 L 4.034,0 c 0,-0.53 -0.432,-0.961 -0.961,-0.961 l -2.112,0 C 0.432,-0.961 0,-0.53 0,0 M 2.893,6.316 C 2.059,6.316 1.431,6.018 0.926,5.774 0.618,5.627 0.352,5.499 0.145,5.499 c -0.093,0 -0.173,0.043 -0.215,0.112 l -0.193,0.368 c -0.048,0.096 -0.241,0.285 -0.479,0.285 l -0.286,0 c -0.275,0 -0.494,-0.246 -0.494,-0.548 l 0,-11.341 c 0,-0.356 0.28,-0.636 0.635,-0.636 l 0.248,0 c 0.352,0 0.639,0.284 0.639,0.636 l 0,3.763 c 0,0.112 0.072,0.232 0.145,0.232 0.207,0 0.473,-0.121 0.781,-0.262 0.505,-0.232 1.133,-0.518 1.967,-0.518 l 0.267,0 c 1.477,0 2.395,0.844 2.395,2.2 l 0,4.329 c 0,1.335 -0.938,2.197 -2.395,2.197 l -0.267,0 z" /></g><g
         transform="translate(731.4122,55.124)"
         id="g114"><path
           inkscape:connector-curvature="0"
           id="path116"
           style="fill:#ffffff;fill-opacity:1;fill-rule:nonzero;stroke:none"
           d="m 0,0 c 0,0.479 0.377,0.856 0.857,0.856 l 2.323,0 C 3.659,0.856 4.032,0.479 4.032,0 l 0,-1.386 -4.033,0 C 0,-1.205 0,0 0,0 z m 0.625,2.254 c -1.184,0 -2.145,-0.922 -2.145,-2.058 l 0,-4.438 c 0,-1.151 0.934,-2.127 2.036,-2.127 l 2.985,0 c 0.368,0 0.635,0.256 0.635,0.603 l 0,0.195 c 0,0.35 -0.267,0.6 -0.635,0.6 l -2.452,0 c -0.687,0 -1.05,0.338 -1.05,0.98 l 0,1.298 4.423,0 c 0.712,0 1.132,0.434 1.132,1.169 l 0,1.721 c 0,1.136 -0.963,2.058 -2.142,2.058 l -2.787,0 0,-10e-4 z" /></g><g
         transform="translate(743.1104,57.4297)"
         id="g118"><path
           inkscape:connector-curvature="0"
           id="path120"
           style="fill:#ffffff;fill-opacity:1;fill-rule:nonzero;stroke:none"
           d="m 0,0 c -0.831,0 -1.459,-0.298 -1.965,-0.54 -0.315,-0.148 -0.584,-0.277 -0.804,-0.277 -0.096,0 -0.135,0.012 -0.21,0.142 l -0.175,0.319 c -0.101,0.202 -0.272,0.304 -0.502,0.304 l -0.246,0 c -0.297,0 -0.513,-0.231 -0.513,-0.548 l 0,-7.439 c 0,-0.353 0.278,-0.636 0.637,-0.636 l 0.246,0 c 0.352,0 0.64,0.287 0.64,0.636 l 0,5.628 c 0,0.528 0.43,0.961 0.958,0.961 l 2.113,0 c 0.529,0 0.96,-0.433 0.96,-0.961 l 0,-5.628 c 0,-0.353 0.28,-0.636 0.636,-0.636 l 0.248,0 c 0.352,0 0.639,0.287 0.639,0.636 l 0,5.842 C 2.662,-0.862 1.723,0 0.265,0 L 0,0 z" /></g><g
         transform="translate(806.5441,50.5036)"
         id="g122"><path
           inkscape:connector-curvature="0"
           id="path124"
           style="fill:#ffffff;fill-opacity:1;fill-rule:nonzero;stroke:none"
           d="M 0,0 0.152,0 C 0.324,0 0.471,0.062 0.471,0.225 0.471,0.34 0.387,0.456 0.152,0.456 0.083,0.456 0.036,0.45 0,0.444 L 0,0 z m 0,-0.728 -0.209,0 0,1.314 c 0.11,0.015 0.214,0.031 0.371,0.031 0.199,0 0.33,-0.042 0.408,-0.099 0.079,-0.057 0.121,-0.146 0.121,-0.272 0,-0.173 -0.115,-0.277 -0.256,-0.319 l 0,-0.012 c 0.115,-0.02 0.193,-0.125 0.22,-0.319 0.031,-0.204 0.062,-0.283 0.083,-0.324 l -0.22,0 c -0.031,0.041 -0.062,0.162 -0.088,0.335 -0.032,0.167 -0.116,0.23 -0.283,0.23 l -0.147,0 0,-0.565 z m 0.22,1.68 c -0.518,0 -0.942,-0.445 -0.942,-0.994 0,-0.56 0.424,-1 0.947,-1 0.523,-0.005 0.942,0.44 0.942,0.994 0,0.555 -0.419,1 -0.942,1 l -0.005,0 z m 0.005,0.183 c 0.644,0 1.156,-0.523 1.156,-1.178 0,-0.664 -0.513,-1.182 -1.161,-1.182 -0.644,0 -1.167,0.518 -1.167,1.182 0,0.654 0.523,1.178 1.167,1.178 l 0.005,0 z" /></g></g><text
       xml:space="preserve"
       style="font-size:20px;font-style:normal;font-variant:normal;font-weight:normal;font-stretch:normal;text-align:start;line-height:125%;letter-spacing:0px;word-spacing:0px;writing-mode:lr-tb;text-anchor:start;fill:#ffffff;fill-opacity:1;stroke:none;display:inline;font-family:Open Sans;-inkscape-font-specification:Open Sans"
       x="45.078064"
       y="-49.194511"
       id="text3103"
       sodipodi:linespacing="125%"
       transform="matrix(1.25,0,0,1.25,-2.2507008,1502.5006)"><tspan
         sodipodi:role="line"
         id="tspan3105"
         x="45.078064"
         y="-49.194511">www.opensuse.org</tspan></text>
</g></svg>